# xmcd
#
# Track frame offsets: 
#        150
#        13258
#        26363
#        39309
#        52001
#        65258
#        78530
#        90479
#        102371
#        115801
#        128632
#        141008
#        154099
#        166451
#        179751
#        191455
#        204579
#        217325
#        229167
#        241958
#        254933
#        267281
#        280523
#        291991
#        303968
#
# Disc length: 4200 seconds
#
# Revision: 2
# Processed by: cddbd v1.5.2PL0 Copyright (c) Steve Scherf et al.
# Submitted via: ExactAudioCopyFreeDBPlugin 1.0
#
DISCID=70106619
DTITLE=Big Bill Broonzy - All The Sides [JSP Records]
DYEAR=2005
DGENRE=Blues
TTITLE0=Good Boy
TTITLE1=I Want You By My Side
TTITLE2=Border Blues
TTITLE3=Sweetheart Land
TTITLE4=It's a Low Down Dirty Shame
TTITLE5=Got to Get Ready Tonight
TTITLE6=Trucking Little Woman
TTITLE7=Unemployment Stomp
TTITLE8=Why Do You Do That to Me
TTITLE9=It's Your Time Now
TTITLE10=I'll Start Cutting on You
TTITLE11=Sad Letter Blues
TTITLE12=The Mill Man Blues
TTITLE13=I'll Do Anything for You
TTITLE14=Sad Pencil Blues
TTITLE15=New Shake-Em on Down
TTITLE16=Night Time is the Right Time, No. 2
TTITLE17=Let Me Dig It
TTITLE18=W.P.A. Rag
TTITLE19=Going Back to Arkansas
TTITLE20=Rider Rider Blues
TTITLE21=Living on Easy Street
TTITLE22=Good Time Tonight
TTITLE23=Trouble and Lying Woman
TTITLE24=I Believe I'll Go Back Home
EXTD=
EXTT0=
EXTT1=
EXTT2=
EXTT3=
EXTT4=
EXTT5=
EXTT6=
EXTT7=
EXTT8=
EXTT9=
EXTT10=
EXTT11=
EXTT12=
EXTT13=
EXTT14=
EXTT15=
EXTT16=
EXTT17=
EXTT18=
EXTT19=
EXTT20=
EXTT21=
EXTT22=
EXTT23=
EXTT24=
PLAYORDER=
